<svg width="37" height="62" viewBox="0 0 37 62" fill="none" xmlns="http://www.w3.org/2000/svg">
<path d="M0.818726 30.6429C0.818726 30.1518 1.06426 29.5993 1.43256 29.231L30.0375 0.626111C30.4058 0.257812 30.9582 0.0122712 31.4493 0.0122712C31.9404 0.0122712 32.4928 0.257812 32.8611 0.626111L35.9303 3.69531C36.2986 4.06361 36.5442 4.61607 36.5442 5.10714C36.5442 5.59821 36.2986 6.15067 35.9303 6.51897L11.8064 30.6429L35.9303 54.7667C36.2986 55.135 36.5442 55.6875 36.5442 56.1786C36.5442 56.731 36.2986 57.2221 35.9303 57.5904L32.8611 60.6596C32.4928 61.0279 31.9404 61.2734 31.4493 61.2734C30.9582 61.2734 30.4058 61.0279 30.0375 60.6596L1.43256 32.0547C1.06426 31.6864 0.818726 31.1339 0.818726 30.6429Z" fill="#700D1F"/>
</svg>
