<svg width="37" height="63" viewBox="0 0 37 63" fill="none" xmlns="http://www.w3.org/2000/svg">
<path d="M36.3223 31.5603C36.3223 31.0693 36.0767 30.5168 35.7084 30.1485L7.10352 1.54359C6.73521 1.17529 6.18276 0.929752 5.69169 0.929752C5.20061 0.929752 4.64816 1.17529 4.27986 1.54359L1.21066 4.61279C0.842355 4.98109 0.596819 5.53355 0.596819 6.02462C0.596819 6.51569 0.842355 7.06815 1.21066 7.43645L25.3345 31.5603L1.21066 55.6842C0.842355 56.0525 0.596819 56.605 0.596819 57.0961C0.596819 57.6485 0.842355 58.1396 1.21066 58.5079L4.27986 61.5771C4.64816 61.9454 5.20061 62.1909 5.69169 62.1909C6.18276 62.1909 6.73521 61.9454 7.10352 61.5771L35.7084 32.9722C36.0767 32.6039 36.3223 32.0514 36.3223 31.5603Z" fill="#700D1F"/>
</svg>
