<svg width="216" height="62" viewBox="0 0 216 62" fill="none" xmlns="http://www.w3.org/2000/svg">
<path d="M0.0711329 22V21.7L0.671133 21.49C1.07113 21.37 1.33113 21.19 1.45113 20.95C1.59113 20.71 1.66113 20.39 1.66113 19.99V4.27C1.66113 3.87 1.59113 3.55 1.45113 3.31C1.31113 3.07 1.04113 2.88 0.641133 2.74L0.0711329 2.5V2.2H7.36113C10.3411 2.2 12.4911 2.75 13.8111 3.85C15.1511 4.93 15.8211 6.36 15.8211 8.14C15.8211 9.28 15.5411 10.33 14.9811 11.29C14.4411 12.23 13.5411 12.98 12.2811 13.54C11.0211 14.1 9.32113 14.38 7.18113 14.38H6.16113V19.9C6.16113 20.68 6.55113 21.19 7.33113 21.43L8.23113 21.7V22H0.0711329ZM6.16113 13.78H7.30113C8.28113 13.78 9.08113 13.62 9.70113 13.3C10.3211 12.98 10.7811 12.42 11.0811 11.62C11.3811 10.82 11.5311 9.71 11.5311 8.29C11.5311 6.85 11.3611 5.73 11.0211 4.93C10.7011 4.13 10.2211 3.58 9.58113 3.28C8.94113 2.96 8.14113 2.8 7.18113 2.8H6.16113V13.78ZM21.0318 22.45C19.8718 22.45 18.8918 22.12 18.0918 21.46C17.3118 20.8 16.9218 19.85 16.9218 18.61C16.9218 17.67 17.4018 16.81 18.3618 16.03C19.3218 15.23 20.8318 14.63 22.8918 14.23C23.2118 14.17 23.5718 14.11 23.9718 14.05C24.3718 13.97 24.7918 13.89 25.2318 13.81V11.44C25.2318 10.08 25.0618 9.13 24.7218 8.59C24.4018 8.03 23.8918 7.75 23.1918 7.75C22.7118 7.75 22.3318 7.91 22.0518 8.23C21.7718 8.53 21.5918 9.06 21.5118 9.82L21.4518 10.15C21.4118 11.01 21.2018 11.64 20.8218 12.04C20.4418 12.44 19.9718 12.64 19.4118 12.64C18.8918 12.64 18.4618 12.48 18.1218 12.16C17.7818 11.84 17.6118 11.41 17.6118 10.87C17.6118 10.05 17.8918 9.36 18.4518 8.8C19.0318 8.24 19.7918 7.82 20.7318 7.54C21.6718 7.26 22.6918 7.12 23.7918 7.12C25.5718 7.12 26.9418 7.56 27.9018 8.44C28.8818 9.3 29.3718 10.71 29.3718 12.67V19.3C29.3718 20.2 29.7918 20.65 30.6318 20.65H31.2918L31.5618 20.89C31.1818 21.37 30.7618 21.74 30.3018 22C29.8618 22.26 29.2318 22.39 28.4118 22.39C27.5318 22.39 26.8318 22.19 26.3118 21.79C25.8118 21.37 25.4818 20.82 25.3218 20.14C24.7218 20.78 24.1018 21.33 23.4618 21.79C22.8418 22.23 22.0318 22.45 21.0318 22.45ZM22.8618 20.62C23.2618 20.62 23.6318 20.53 23.9718 20.35C24.3318 20.15 24.7518 19.85 25.2318 19.45V14.41C25.0318 14.45 24.8318 14.49 24.6318 14.53C24.4318 14.57 24.2018 14.61 23.9418 14.65C23.0218 14.89 22.2818 15.3 21.7218 15.88C21.1818 16.44 20.9118 17.2 20.9118 18.16C20.9118 18.98 21.1018 19.6 21.4818 20.02C21.8618 20.42 22.3218 20.62 22.8618 20.62ZM37.8791 22.45C36.5991 22.45 35.5991 22.13 34.8791 21.49C34.1791 20.85 33.8291 19.83 33.8291 18.43V8.17H31.7591V7.87L32.4791 7.75C33.0991 7.61 33.6291 7.41 34.0691 7.15C34.5291 6.89 34.9791 6.54 35.4191 6.1L37.8791 3.37H38.1791L38.0891 7.57H41.4491V8.17H38.0591V18.97C38.0591 19.67 38.2091 20.2 38.5091 20.56C38.8291 20.92 39.2291 21.1 39.7091 21.1C40.1291 21.1 40.4991 21 40.8191 20.8C41.1391 20.58 41.4591 20.29 41.7791 19.93L42.0791 20.23C41.6791 20.91 41.1291 21.45 40.4291 21.85C39.7291 22.25 38.8791 22.45 37.8791 22.45ZM50.4611 7.12C51.7611 7.12 52.8711 7.39 53.7911 7.93C54.7111 8.45 55.4111 9.17 55.8911 10.09C56.3911 10.99 56.6411 12.02 56.6411 13.18C56.6411 13.4 56.6311 13.63 56.6111 13.87C56.5911 14.09 56.5511 14.29 56.4911 14.47H47.5511C47.5711 16.63 47.9511 18.19 48.6911 19.15C49.4511 20.09 50.5711 20.56 52.0511 20.56C53.0511 20.56 53.8611 20.4 54.4811 20.08C55.1011 19.76 55.6811 19.29 56.2211 18.67L56.5211 18.94C55.9011 20.04 55.0711 20.9 54.0311 21.52C53.0111 22.14 51.7811 22.45 50.3411 22.45C48.9211 22.45 47.6611 22.15 46.5611 21.55C45.4611 20.93 44.6011 20.05 43.9811 18.91C43.3611 17.77 43.0511 16.41 43.0511 14.83C43.0511 13.19 43.4111 11.8 44.1311 10.66C44.8511 9.5 45.7711 8.62 46.8911 8.02C48.0311 7.42 49.2211 7.12 50.4611 7.12ZM50.3711 7.72C49.7911 7.72 49.2911 7.9 48.8711 8.26C48.4711 8.6 48.1511 9.22 47.9111 10.12C47.6911 11 47.5711 12.25 47.5511 13.87H52.6811C52.8811 11.69 52.8011 10.12 52.4411 9.16C52.0811 8.2 51.3911 7.72 50.3711 7.72ZM63.8361 22.45C62.5561 22.45 61.5561 22.13 60.8361 21.49C60.1361 20.85 59.7861 19.83 59.7861 18.43V8.17H57.7161V7.87L58.4361 7.75C59.0561 7.61 59.5861 7.41 60.0261 7.15C60.4861 6.89 60.9361 6.54 61.3761 6.1L63.8361 3.37H64.1361L64.0461 7.57H67.4061V8.17H64.0161V18.97C64.0161 19.67 64.1661 20.2 64.4661 20.56C64.7861 20.92 65.1861 21.1 65.6661 21.1C66.0861 21.1 66.4561 21 66.7761 20.8C67.0961 20.58 67.4161 20.29 67.7361 19.93L68.0361 20.23C67.6361 20.91 67.0861 21.45 66.3861 21.85C65.6861 22.25 64.8361 22.45 63.8361 22.45ZM72.576 5.56C71.896 5.56 71.316 5.35 70.836 4.93C70.376 4.49 70.146 3.94 70.146 3.28C70.146 2.6 70.376 2.05 70.836 1.63C71.316 1.21 71.896 0.999999 72.576 0.999999C73.256 0.999999 73.826 1.21 74.286 1.63C74.746 2.05 74.976 2.6 74.976 3.28C74.976 3.94 74.746 4.49 74.286 4.93C73.826 5.35 73.256 5.56 72.576 5.56ZM69.036 22V21.7L69.456 21.58C69.856 21.46 70.126 21.28 70.266 21.04C70.426 20.8 70.506 20.48 70.506 20.08V10.69C70.506 10.27 70.426 9.96 70.266 9.76C70.126 9.54 69.856 9.39 69.456 9.31L69.036 9.22V8.92L74.526 7.15L74.826 7.45L74.736 11.71V20.11C74.736 20.51 74.806 20.83 74.946 21.07C75.106 21.31 75.376 21.49 75.756 21.61L76.056 21.7V22H69.036ZM84.8242 22.45C83.4642 22.45 82.2242 22.16 81.1042 21.58C80.0042 20.98 79.1242 20.12 78.4642 19C77.8242 17.86 77.5042 16.47 77.5042 14.83C77.5042 13.21 77.8542 11.83 78.5542 10.69C79.2742 9.53 80.2242 8.65 81.4042 8.05C82.6042 7.43 83.9142 7.12 85.3342 7.12C86.4942 7.12 87.4742 7.31 88.2742 7.69C89.0742 8.07 89.6842 8.57 90.1042 9.19C90.5242 9.79 90.7342 10.42 90.7342 11.08C90.7342 11.64 90.5642 12.08 90.2242 12.4C89.8842 12.7 89.4442 12.85 88.9042 12.85C88.3242 12.85 87.8542 12.64 87.4942 12.22C87.1342 11.8 86.9242 11.25 86.8642 10.57C86.8442 10.13 86.8542 9.76 86.8942 9.46C86.9342 9.14 86.9342 8.82 86.8942 8.5C86.8142 8.16 86.6842 7.94 86.5042 7.84C86.3442 7.72 86.1142 7.66 85.8142 7.66C84.5942 7.66 83.6442 8.19 82.9642 9.25C82.3042 10.31 81.9742 12 81.9742 14.32C81.9742 16.34 82.3442 17.89 83.0842 18.97C83.8442 20.03 85.0042 20.56 86.5642 20.56C87.5042 20.56 88.2642 20.39 88.8442 20.05C89.4242 19.71 89.9842 19.2 90.5242 18.52L90.8242 18.76C90.3242 19.94 89.5542 20.85 88.5142 21.49C87.4742 22.13 86.2442 22.45 84.8242 22.45ZM99.6226 22.45C98.1026 22.45 96.7826 22.14 95.6626 21.52C94.5426 20.88 93.6726 19.98 93.0526 18.82C92.4526 17.66 92.1526 16.3 92.1526 14.74C92.1526 13.18 92.4726 11.83 93.1126 10.69C93.7726 9.55 94.6626 8.67 95.7826 8.05C96.9226 7.43 98.2026 7.12 99.6226 7.12C101.043 7.12 102.313 7.43 103.433 8.05C104.553 8.65 105.433 9.52 106.073 10.66C106.733 11.8 107.063 13.16 107.063 14.74C107.063 16.32 106.753 17.69 106.133 18.85C105.533 19.99 104.673 20.88 103.553 21.52C102.453 22.14 101.143 22.45 99.6226 22.45ZM99.6226 21.85C100.323 21.85 100.883 21.65 101.303 21.25C101.723 20.85 102.023 20.14 102.203 19.12C102.403 18.1 102.503 16.66 102.503 14.8C102.503 12.92 102.403 11.47 102.203 10.45C102.023 9.43 101.723 8.72 101.303 8.32C100.883 7.92 100.323 7.72 99.6226 7.72C98.9226 7.72 98.3526 7.92 97.9126 8.32C97.4926 8.72 97.1826 9.43 96.9826 10.45C96.8026 11.47 96.7126 12.92 96.7126 14.8C96.7126 16.66 96.8026 18.1 96.9826 19.12C97.1826 20.14 97.4926 20.85 97.9126 21.25C98.3526 21.65 98.9226 21.85 99.6226 21.85ZM121.243 22.45C119.923 22.45 118.793 22.21 117.853 21.73C116.933 21.23 116.233 20.58 115.753 19.78C115.273 18.98 115.033 18.09 115.033 17.11C115.033 14.69 116.593 12.83 119.713 11.53C119.153 10.77 118.653 10 118.213 9.22C117.793 8.44 117.583 7.53 117.583 6.49C117.583 5.07 118.083 3.94 119.083 3.1C120.103 2.24 121.433 1.81 123.073 1.81C124.673 1.81 125.913 2.17 126.793 2.89C127.673 3.59 128.113 4.52 128.113 5.68C128.113 6.66 127.713 7.52 126.913 8.26C126.113 9 124.973 9.68 123.493 10.3C123.873 10.72 124.263 11.17 124.663 11.65C125.083 12.11 125.513 12.57 125.953 13.03C126.493 13.63 127.013 14.2 127.513 14.74C128.033 15.28 128.553 15.84 129.073 16.42C129.553 15.76 130.003 14.96 130.423 14.02C130.843 13.08 131.173 12.09 131.413 11.05C131.573 10.29 131.283 9.8 130.543 9.58L130.333 9.49V9.19H133.723V9.49L133.453 9.58C132.793 9.8 132.363 10.26 132.163 10.96C131.863 12.08 131.493 13.14 131.053 14.14C130.613 15.14 130.103 16.05 129.523 16.87L132.733 20.26C132.993 20.54 133.253 20.77 133.513 20.95C133.773 21.13 134.063 21.31 134.383 21.49L134.803 21.7V22H128.743L126.733 19.84C126.353 20.26 125.923 20.67 125.443 21.07C124.963 21.47 124.383 21.8 123.703 22.06C123.023 22.32 122.203 22.45 121.243 22.45ZM123.133 9.91C123.913 9.21 124.473 8.51 124.813 7.81C125.173 7.09 125.353 6.3 125.353 5.44C125.353 4.66 125.153 4.03 124.753 3.55C124.353 3.05 123.803 2.8 123.103 2.8C122.443 2.8 121.893 3.04 121.453 3.52C121.013 4 120.793 4.61 120.793 5.35C120.793 5.81 120.873 6.29 121.033 6.79C121.213 7.29 121.523 7.86 121.963 8.5C122.083 8.66 122.243 8.85 122.443 9.07C122.643 9.29 122.873 9.57 123.133 9.91ZM122.983 20.44C123.683 20.44 124.313 20.34 124.873 20.14C125.433 19.92 125.913 19.65 126.313 19.33C125.833 18.79 125.333 18.23 124.813 17.65C124.293 17.05 123.803 16.48 123.343 15.94C122.783 15.28 122.233 14.62 121.693 13.96C121.173 13.3 120.653 12.66 120.133 12.04C119.613 12.52 119.233 13.08 118.993 13.72C118.753 14.36 118.633 15.03 118.633 15.73C118.633 17.09 119.033 18.22 119.833 19.12C120.653 20 121.703 20.44 122.983 20.44ZM143.128 22V21.7L143.758 21.46C144.398 21.2 144.718 20.69 144.718 19.93V4.27C144.718 3.47 144.398 2.96 143.758 2.74L143.128 2.5V2.2H151.048C153.168 2.2 154.988 2.6 156.508 3.4C158.048 4.18 159.228 5.31 160.048 6.79C160.888 8.25 161.308 10.01 161.308 12.07C161.308 14.17 160.858 15.96 159.958 17.44C159.058 18.92 157.798 20.05 156.178 20.83C154.578 21.61 152.688 22 150.508 22H143.128ZM149.218 21.4H150.508C151.948 21.4 153.108 21.12 153.988 20.56C154.868 19.98 155.508 19.02 155.908 17.68C156.328 16.32 156.538 14.46 156.538 12.1C156.538 9.74 156.328 7.89 155.908 6.55C155.508 5.19 154.878 4.23 154.018 3.67C153.158 3.09 152.028 2.8 150.628 2.8H149.218V21.4ZM170.111 22.45C168.591 22.45 167.271 22.14 166.151 21.52C165.031 20.88 164.161 19.98 163.541 18.82C162.941 17.66 162.641 16.3 162.641 14.74C162.641 13.18 162.961 11.83 163.601 10.69C164.261 9.55 165.151 8.67 166.271 8.05C167.411 7.43 168.691 7.12 170.111 7.12C171.531 7.12 172.801 7.43 173.921 8.05C175.041 8.65 175.921 9.52 176.561 10.66C177.221 11.8 177.551 13.16 177.551 14.74C177.551 16.32 177.241 17.69 176.621 18.85C176.021 19.99 175.161 20.88 174.041 21.52C172.941 22.14 171.631 22.45 170.111 22.45ZM170.111 21.85C170.811 21.85 171.371 21.65 171.791 21.25C172.211 20.85 172.511 20.14 172.691 19.12C172.891 18.1 172.991 16.66 172.991 14.8C172.991 12.92 172.891 11.47 172.691 10.45C172.511 9.43 172.211 8.72 171.791 8.32C171.371 7.92 170.811 7.72 170.111 7.72C169.411 7.72 168.841 7.92 168.401 8.32C167.981 8.72 167.671 9.43 167.471 10.45C167.291 11.47 167.201 12.92 167.201 14.8C167.201 16.66 167.291 18.1 167.471 19.12C167.671 20.14 167.981 20.85 168.401 21.25C168.841 21.65 169.411 21.85 170.111 21.85ZM178.841 22V21.7L179.201 21.58C179.921 21.34 180.281 20.84 180.281 20.08V4.03C180.281 3.63 180.201 3.33 180.041 3.13C179.881 2.91 179.601 2.75 179.201 2.65L178.811 2.56V2.26L184.301 0.969999L184.661 1.24L184.541 5.44V15.7C184.541 16.44 184.541 17.18 184.541 17.92C184.561 18.64 184.571 19.36 184.571 20.08C184.571 20.48 184.651 20.81 184.811 21.07C184.971 21.31 185.241 21.49 185.621 21.61L186.011 21.7V22H178.841ZM194.775 22.45C193.415 22.45 192.175 22.16 191.055 21.58C189.955 20.98 189.075 20.12 188.415 19C187.775 17.86 187.455 16.47 187.455 14.83C187.455 13.21 187.805 11.83 188.505 10.69C189.225 9.53 190.175 8.65 191.355 8.05C192.555 7.43 193.865 7.12 195.285 7.12C196.445 7.12 197.425 7.31 198.225 7.69C199.025 8.07 199.635 8.57 200.055 9.19C200.475 9.79 200.685 10.42 200.685 11.08C200.685 11.64 200.515 12.08 200.175 12.4C199.835 12.7 199.395 12.85 198.855 12.85C198.275 12.85 197.805 12.64 197.445 12.22C197.085 11.8 196.875 11.25 196.815 10.57C196.795 10.13 196.805 9.76 196.845 9.46C196.885 9.14 196.885 8.82 196.845 8.5C196.765 8.16 196.635 7.94 196.455 7.84C196.295 7.72 196.065 7.66 195.765 7.66C194.545 7.66 193.595 8.19 192.915 9.25C192.255 10.31 191.925 12 191.925 14.32C191.925 16.34 192.295 17.89 193.035 18.97C193.795 20.03 194.955 20.56 196.515 20.56C197.455 20.56 198.215 20.39 198.795 20.05C199.375 19.71 199.935 19.2 200.475 18.52L200.775 18.76C200.275 19.94 199.505 20.85 198.465 21.49C197.425 22.13 196.195 22.45 194.775 22.45ZM209.514 7.12C210.814 7.12 211.924 7.39 212.844 7.93C213.764 8.45 214.464 9.17 214.944 10.09C215.444 10.99 215.694 12.02 215.694 13.18C215.694 13.4 215.684 13.63 215.664 13.87C215.644 14.09 215.604 14.29 215.544 14.47H206.604C206.624 16.63 207.004 18.19 207.744 19.15C208.504 20.09 209.624 20.56 211.104 20.56C212.104 20.56 212.914 20.4 213.534 20.08C214.154 19.76 214.734 19.29 215.274 18.67L215.574 18.94C214.954 20.04 214.124 20.9 213.084 21.52C212.064 22.14 210.834 22.45 209.394 22.45C207.974 22.45 206.714 22.15 205.614 21.55C204.514 20.93 203.654 20.05 203.034 18.91C202.414 17.77 202.104 16.41 202.104 14.83C202.104 13.19 202.464 11.8 203.184 10.66C203.904 9.5 204.824 8.62 205.944 8.02C207.084 7.42 208.274 7.12 209.514 7.12ZM209.424 7.72C208.844 7.72 208.344 7.9 207.924 8.26C207.524 8.6 207.204 9.22 206.964 10.12C206.744 11 206.624 12.25 206.604 13.87H211.734C211.934 11.69 211.854 10.12 211.494 9.16C211.134 8.2 210.444 7.72 209.424 7.72ZM54.3411 56.375C53.5244 56.375 52.7911 56.275 52.1411 56.075C51.4911 55.8917 50.8911 55.6583 50.3411 55.375L50.3661 52.4H50.6161L51.4661 53.9C51.8328 54.5667 52.2328 55.0667 52.6661 55.4C53.1161 55.7167 53.6828 55.875 54.3661 55.875C55.1661 55.875 55.8078 55.7 56.2911 55.35C56.7911 54.9833 57.0411 54.5 57.0411 53.9C57.0411 53.35 56.8661 52.9 56.5161 52.55C56.1661 52.2 55.5161 51.8833 54.5661 51.6L53.5161 51.275C52.4994 50.975 51.6994 50.5083 51.1161 49.875C50.5328 49.2417 50.2411 48.4667 50.2411 47.55C50.2411 46.45 50.6744 45.5167 51.5411 44.75C52.4078 43.9833 53.6494 43.6 55.2661 43.6C55.9161 43.6 56.5244 43.675 57.0911 43.825C57.6744 43.9583 58.2328 44.1667 58.7661 44.45L58.6161 47.15H58.3661L57.4911 45.6C57.1744 45.05 56.8578 44.6667 56.5411 44.45C56.2411 44.2167 55.7828 44.1 55.1661 44.1C54.5994 44.1 54.0661 44.2583 53.5661 44.575C53.0661 44.8917 52.8161 45.3417 52.8161 45.925C52.8161 46.4917 53.0244 46.9417 53.4411 47.275C53.8744 47.6083 54.5078 47.9167 55.3411 48.2L56.4661 48.525C57.6661 48.8917 58.5244 49.4 59.0411 50.05C59.5578 50.6833 59.8161 51.45 59.8161 52.35C59.8161 53.5667 59.3328 54.5417 58.3661 55.275C57.4161 56.0083 56.0744 56.375 54.3411 56.375ZM65.8833 56.075L62.0333 45.5C61.85 44.9667 61.4833 44.5917 60.9333 44.375L60.5083 44.225V43.975H66.6333V44.225L66.2583 44.325C65.6083 44.525 65.3916 44.925 65.6083 45.525L67.9333 52.6L70.0083 47.1L69.5333 45.675C69.4166 45.3083 69.2916 45.0333 69.1583 44.85C69.0416 44.65 68.8833 44.5083 68.6833 44.425L68.2583 44.225V43.975H73.4333V44.225L73.0833 44.375C72.8333 44.475 72.6833 44.6083 72.6333 44.775C72.5833 44.9417 72.6166 45.1917 72.7333 45.525L75.0333 52.475L77.4083 45.575C77.6416 44.9417 77.5166 44.5417 77.0333 44.375L76.4833 44.225V43.975H79.4833V44.225L78.8833 44.4C78.6 44.4833 78.3916 44.6167 78.2583 44.8C78.1416 44.9667 78.0333 45.2 77.9333 45.5L74.3333 56.075H73.0583L70.2833 47.9L67.3333 56.075H65.8833ZM85.9054 43.6C86.9887 43.6 87.9137 43.825 88.6804 44.275C89.447 44.7083 90.0304 45.3083 90.4304 46.075C90.847 46.825 91.0554 47.6833 91.0554 48.65C91.0554 48.8333 91.047 49.025 91.0304 49.225C91.0137 49.4083 90.9804 49.575 90.9304 49.725H83.4804C83.497 51.525 83.8137 52.825 84.4304 53.625C85.0637 54.4083 85.997 54.8 87.2304 54.8C88.0637 54.8 88.7387 54.6667 89.2554 54.4C89.772 54.1333 90.2554 53.7417 90.7054 53.225L90.9554 53.45C90.4387 54.3667 89.747 55.0833 88.8804 55.6C88.0304 56.1167 87.0054 56.375 85.8054 56.375C84.622 56.375 83.572 56.125 82.6554 55.625C81.7387 55.1083 81.022 54.375 80.5054 53.425C79.9887 52.475 79.7304 51.3417 79.7304 50.025C79.7304 48.6583 80.0304 47.5 80.6304 46.55C81.2304 45.5833 81.997 44.85 82.9304 44.35C83.8804 43.85 84.872 43.6 85.9054 43.6ZM85.8304 44.1C85.347 44.1 84.9304 44.25 84.5804 44.55C84.247 44.8333 83.9804 45.35 83.7804 46.1C83.597 46.8333 83.497 47.875 83.4804 49.225H87.7554C87.922 47.4083 87.8554 46.1 87.5554 45.3C87.2554 44.5 86.6804 44.1 85.8304 44.1ZM98.5763 43.6C99.6596 43.6 100.585 43.825 101.351 44.275C102.118 44.7083 102.701 45.3083 103.101 46.075C103.518 46.825 103.726 47.6833 103.726 48.65C103.726 48.8333 103.718 49.025 103.701 49.225C103.685 49.4083 103.651 49.575 103.601 49.725H96.1513C96.1679 51.525 96.4846 52.825 97.1013 53.625C97.7346 54.4083 98.6679 54.8 99.9013 54.8C100.735 54.8 101.41 54.6667 101.926 54.4C102.443 54.1333 102.926 53.7417 103.376 53.225L103.626 53.45C103.11 54.3667 102.418 55.0833 101.551 55.6C100.701 56.1167 99.6763 56.375 98.4763 56.375C97.2929 56.375 96.2429 56.125 95.3263 55.625C94.4096 55.1083 93.6929 54.375 93.1763 53.425C92.6596 52.475 92.4013 51.3417 92.4013 50.025C92.4013 48.6583 92.7013 47.5 93.3013 46.55C93.9013 45.5833 94.6679 44.85 95.6013 44.35C96.5513 43.85 97.5429 43.6 98.5763 43.6ZM98.5013 44.1C98.0179 44.1 97.6013 44.25 97.2513 44.55C96.9179 44.8333 96.6513 45.35 96.4513 46.1C96.2679 46.8333 96.1679 47.875 96.1513 49.225H100.426C100.593 47.4083 100.526 46.1 100.226 45.3C99.9263 44.5 99.3513 44.1 98.5013 44.1ZM109.722 56.375C108.656 56.375 107.822 56.1083 107.222 55.575C106.639 55.0417 106.347 54.1917 106.347 53.025V44.475H104.622V44.225L105.222 44.125C105.739 44.0083 106.181 43.8417 106.547 43.625C106.931 43.4083 107.306 43.1167 107.672 42.75L109.722 40.475H109.972L109.897 43.975H112.697V44.475H109.872V53.475C109.872 54.0583 109.997 54.5 110.247 54.8C110.514 55.1 110.847 55.25 111.247 55.25C111.597 55.25 111.906 55.1667 112.172 55C112.439 54.8167 112.706 54.575 112.972 54.275L113.222 54.525C112.889 55.0917 112.431 55.5417 111.847 55.875C111.264 56.2083 110.556 56.375 109.722 56.375ZM118.477 56.375C117.66 56.375 116.927 56.275 116.277 56.075C115.627 55.8917 115.027 55.6583 114.477 55.375L114.502 52.4H114.752L115.602 53.9C115.969 54.5667 116.369 55.0667 116.802 55.4C117.252 55.7167 117.819 55.875 118.502 55.875C119.302 55.875 119.944 55.7 120.427 55.35C120.927 54.9833 121.177 54.5 121.177 53.9C121.177 53.35 121.002 52.9 120.652 52.55C120.302 52.2 119.652 51.8833 118.702 51.6L117.652 51.275C116.635 50.975 115.835 50.5083 115.252 49.875C114.669 49.2417 114.377 48.4667 114.377 47.55C114.377 46.45 114.81 45.5167 115.677 44.75C116.544 43.9833 117.785 43.6 119.402 43.6C120.052 43.6 120.66 43.675 121.227 43.825C121.81 43.9583 122.369 44.1667 122.902 44.45L122.752 47.15H122.502L121.627 45.6C121.31 45.05 120.994 44.6667 120.677 44.45C120.377 44.2167 119.919 44.1 119.302 44.1C118.735 44.1 118.202 44.2583 117.702 44.575C117.202 44.8917 116.952 45.3417 116.952 45.925C116.952 46.4917 117.16 46.9417 117.577 47.275C118.01 47.6083 118.644 47.9167 119.477 48.2L120.602 48.525C121.802 48.8917 122.66 49.4 123.177 50.05C123.694 50.6833 123.952 51.45 123.952 52.35C123.952 53.5667 123.469 54.5417 122.502 55.275C121.552 56.0083 120.21 56.375 118.477 56.375ZM124.725 56V55.75L125.025 55.65C125.625 55.45 125.925 55.0333 125.925 54.4V41.05C125.925 40.7 125.867 40.4417 125.75 40.275C125.633 40.1083 125.408 39.9833 125.075 39.9L124.7 39.8V39.55L129.1 38.475L129.5 38.7L129.4 42.225V45.35C129.983 44.8667 130.608 44.4583 131.275 44.125C131.958 43.775 132.708 43.6 133.525 43.6C134.608 43.6 135.467 43.9083 136.1 44.525C136.75 45.1417 137.075 46.0917 137.075 47.375V54.425C137.075 54.7583 137.142 55.025 137.275 55.225C137.408 55.425 137.642 55.575 137.975 55.675L138.175 55.75V56H132.325V55.75L132.625 55.675C133.225 55.475 133.525 55.05 133.525 54.4V46.55C133.525 45.8833 133.408 45.425 133.175 45.175C132.958 44.925 132.567 44.8 132 44.8C131.633 44.8 131.233 44.875 130.8 45.025C130.367 45.1583 129.925 45.4 129.475 45.75V54.45C129.475 55.1 129.775 55.5167 130.375 55.7L130.575 55.75V56H124.725ZM145.477 56.375C144.21 56.375 143.11 56.1167 142.177 55.6C141.244 55.0667 140.519 54.3167 140.002 53.35C139.502 52.3833 139.252 51.25 139.252 49.95C139.252 48.65 139.519 47.525 140.052 46.575C140.602 45.625 141.344 44.8917 142.277 44.375C143.227 43.8583 144.294 43.6 145.477 43.6C146.66 43.6 147.719 43.8583 148.652 44.375C149.585 44.875 150.319 45.6 150.852 46.55C151.402 47.5 151.677 48.6333 151.677 49.95C151.677 51.2667 151.419 52.4083 150.902 53.375C150.402 54.325 149.685 55.0667 148.752 55.6C147.835 56.1167 146.744 56.375 145.477 56.375ZM145.477 55.875C146.06 55.875 146.527 55.7083 146.877 55.375C147.227 55.0417 147.477 54.45 147.627 53.6C147.794 52.75 147.877 51.55 147.877 50C147.877 48.4333 147.794 47.225 147.627 46.375C147.477 45.525 147.227 44.9333 146.877 44.6C146.527 44.2667 146.06 44.1 145.477 44.1C144.894 44.1 144.419 44.2667 144.052 44.6C143.702 44.9333 143.444 45.525 143.277 46.375C143.127 47.225 143.052 48.4333 143.052 50C143.052 51.55 143.127 52.75 143.277 53.6C143.444 54.45 143.702 55.0417 144.052 55.375C144.419 55.7083 144.894 55.875 145.477 55.875ZM152.531 61.75V61.5L152.831 61.4C153.447 61.2333 153.756 60.8333 153.756 60.2V46.6C153.756 46.2333 153.689 45.9583 153.556 45.775C153.439 45.5917 153.214 45.4667 152.881 45.4L152.531 45.325V45.075L156.781 43.625L157.031 43.875L157.256 44.65C157.806 44.3167 158.414 44.0583 159.081 43.875C159.764 43.6917 160.464 43.6 161.181 43.6C162.614 43.6 163.747 44.15 164.581 45.25C165.431 46.3333 165.856 47.8917 165.856 49.925C165.856 51.925 165.389 53.5 164.456 54.65C163.539 55.8 162.239 56.375 160.556 56.375C159.239 56.375 158.131 56.1833 157.231 55.8V60.125C157.231 60.7917 157.531 61.2083 158.131 61.375L158.606 61.5V61.75H152.531ZM159.356 55.65C160.189 55.65 160.847 55.2167 161.331 54.35C161.831 53.4833 162.081 52.0417 162.081 50.025C162.081 48.0083 161.847 46.6 161.381 45.8C160.914 44.9833 160.239 44.575 159.356 44.575C158.739 44.575 158.056 44.775 157.306 45.175V55.25C157.939 55.5167 158.622 55.65 159.356 55.65Z" fill="#64320C"/>
</svg>
